<svg xmlns="http://www.w3.org/2000/svg" viewBox="0 0 512 512" width="512" height="512">
  <!-- 100% Solid Clean White Background -->
  <rect x="0" y="0" width="512" height="512" fill="#ffffff" />

  <!-- Inner Content scaled safely within 85% safe zone for PWA maskable icon requirements -->
  <g transform="translate(256, 256) scale(0.85) translate(-256, -256)">
    <!-- 75% Circular Gauge -->
    <g transform="translate(256, 150)">
      <!-- Background Circle -->
      <circle cx="0" cy="0" r="90" fill="none" stroke="#e2e8f0" stroke-width="20" />
      
      <!-- Black Arc (Top Left) -->
      <path d="M 0 -90 A 90 90 0 0 0 -90 0" fill="none" stroke="#0f172a" stroke-width="20" stroke-linecap="round" />
      
      <!-- Green Arc (75% completion from top right to bottom left) -->
      <path d="M 0 -90 A 90 90 0 1 1 -90 0" fill="none" stroke="#22c55e" stroke-width="20" stroke-linecap="round" />
      
      <!-- 75% Text (Black) -->
      <text x="0" y="22" text-anchor="middle" fill="#0f172a" font-family="sans-serif, Arial" font-size="64" font-weight="bold">75%</text>
    </g>

    <!-- Try{Catch}75 Text -->
    <g transform="translate(256, 310)">
      <text x="0" y="0" text-anchor="middle" font-family="sans-serif, Arial" font-size="48" font-weight="bold">
        <tspan fill="#f59e0b">Try</tspan>
        <tspan fill="#f59e0b">{</tspan>
        <tspan fill="#0f172a">Catch</tspan>
        <tspan fill="#f59e0b">}</tspan>
        <tspan fill="#f59e0b">75</tspan>
      </text>
    </g>

    <!-- Books and Laptop Icons -->
    <g transform="translate(180, 360)">
      <!-- Stack of Books (Black) -->
      <path d="M 10 30 L 60 15 L 110 30 L 60 45 Z" fill="none" stroke="#0f172a" stroke-width="14" stroke-linecap="round" stroke-linejoin="round" />
      <path d="M 10 45 L 60 60 L 110 45" fill="none" stroke="#0f172a" stroke-width="14" stroke-linecap="round" stroke-linejoin="round" />
      <path d="M 10 60 L 60 75 L 110 60" fill="none" stroke="#0f172a" stroke-width="14" stroke-linecap="round" stroke-linejoin="round" />
    </g>

    <g transform="translate(260, 350)">
      <!-- Laptop (Orange) -->
      <rect x="20" y="10" width="80" height="50" rx="4" fill="none" stroke="#f59e0b" stroke-width="14" stroke-linecap="round" stroke-linejoin="round" />
      <path d="M 10 60 L 110 60" stroke="#f59e0b" stroke-width="16" stroke-linecap="round" />
    </g>
  </g>
</svg>
